{
  "asset": {
    "version": "2.0",
    "generator": "Sketchfab-16.72.0"
  },
  "scene": 0,
  "scenes": [
    {
      "nodes": [
        0
      ],
      "name": "Sketchfab_Scene"
    }
  ],
  "nodes": [
    {
      "name": "Sketchfab_model",
      "children": [
        1
      ]
    },
    {
      "name": "353307ba0e3e4f60b622e5296eb2b4dd.fbx",
      "children": [
        2
      ]
    },
    {
      "name": "RootNode",
      "children": [
        3,
        5,
        7,
        9,
        11,
        13
      ]
    },
    {
      "name": "left",
      "children": [
        4
      ]
    },
    {
      "name": "Object_4"
    },
    {
      "name": "cubebox",
      "children": [
        6
      ]
    },
    {
      "mesh": 0,
      "name": "cubebox_lambert2_0"
    },
    {
      "name": "city",
      "children": [
        8
      ]
    },
    {
      "mesh": 1,
      "name": "city_lambert2_0"
    },
    {
      "name": "factory",
      "children": [
        10
      ]
    },
    {
      "mesh": 2,
      "name": "factory_lambert2_0"
    },
    {
      "name": "park",
      "children": [
        12
      ]
    },
    {
      "mesh": 3,
      "name": "park_lambert2_0"
    },
    {
      "name": "country",
      "children": [
        14
      ]
    },
    {
      "mesh": 4,
      "name": "country_lambert2_0"
    }
  ],
  "meshes": [
    {
      "primitives": [
        {
          "attributes": {
            "POSITION": 0,
            "NORMAL": 1,
            "TEXCOORD_0": 2
          },
          "indices": 3,
          "material": 0,
          "mode": 4
        }
      ],
      "name": "cubebox_lambert2_0"
    },
    {
      "primitives": [
        {
          "attributes": {
            "POSITION": 4,
            "NORMAL": 5,
            "TEXCOORD_0": 6
          },
          "indices": 7,
          "material": 0,
          "mode": 4
        }
      ],
      "name": "city_lambert2_0"
    },
    {
      "primitives": [
        {
          "attributes": {
            "POSITION": 8,
            "NORMAL": 9,
            "TEXCOORD_0": 10
          },
          "indices": 11,
          "material": 0,
          "mode": 4
        }
      ],
      "name": "factory_lambert2_0"
    },
    {
      "primitives": [
        {
          "attributes": {
            "POSITION": 12,
            "NORMAL": 13,
            "TEXCOORD_0": 14
          },
          "indices": 15,
          "material": 0,
          "mode": 4
        }
      ],
      "name": "park_lambert2_0"
    },
    {
      "primitives": [
        {
          "attributes": {
            "POSITION": 16,
            "NORMAL": 17,
            "TEXCOORD_0": 18
          },
          "indices": 19,
          "material": 0,
          "mode": 4
        }
      ],
      "name": "country_lambert2_0"
    }
  ],
  "materials": [
    {
      "name": "lambert2",
      "pbrMetallicRoughness": {
        "baseColorFactor": [
          1.0,
          1.0,
          1.0,
          1.0
        ],
        "metallicFactor": 0.0,
        "roughnessFactor": 1.0,
        "baseColorTexture": {
          "index": 0
        }
      },
      "doubleSided": true
    }
  ],
  "textures": [
    {
      "source": 0,
      "sampler": 0
    }
  ],
  "samplers": [
    {
      "magFilter": 9729,
      "minFilter": 9987,
      "wrapS": 10497,
      "wrapT": 10497
    }
  ],
  "images": [
    {
      "mimeType": "image/jpeg",
      "bufferView": 3
    }
  ],
  "accessors": [
    {
      "bufferView": 2,
      "componentType": 5126,
      "count": 170,
      "type": "VEC3",
      "max": [
        5.017842769622803,
        5.0,
        2.5
      ],
      "min": [
        -4.982157230377197,
        -5.0,
        -2.5
      ]
    },
    {
      "bufferView": 2,
      "componentType": 5126,
      "count": 170,
      "type": "VEC3",
      "max": [
        1.0,
        1.0,
        1.0
      ],
      "min": [
        -1.0,
        -1.0,
        -1.0
      ]
    },
    {
      "bufferView": 1,
      "componentType": 5126,
      "count": 170,
      "type": "VEC2",
      "max": [
        0.8391134142875671,
        0.9683341979980469
      ],
      "min": [
        0.033441364765167236,
        0.03283745050430298
      ]
    },
    {
      "bufferView": 0,
      "componentType": 5125,
      "count": 288,
      "type": "SCALAR"
    },
    {
      "bufferView": 2,
      "componentType": 5126,
      "count": 1224,
      "type": "VEC3",
      "max": [
        -0.24242210388183594,
        4.3503007888793945,
        2.1405346393585205
      ],
      "min": [
        -4.788821697235107,
        0.16936901211738586,
        -1.7510921955108643
      ]
    },
    {
      "bufferView": 2,
      "componentType": 5126,
      "count": 1224,
      "type": "VEC3",
      "max": [
        1.0,
        1.0,
        1.0
      ],
      "min": [
        -1.0,
        0.0,
        -1.0
      ]
    },
    {
      "bufferView": 1,
      "componentType": 5126,
      "count": 1224,
      "type": "VEC2",
      "max": [
        0.40162384510040283,
        0.9386836290359497
      ],
      "min": [
        0.024595677852630615,
        0.6159549951553345
      ]
    },
    {
      "bufferView": 0,
      "componentType": 5125,
      "count": 1926,
      "type": "SCALAR"
    },
    {
      "bufferView": 2,
      "componentType": 5126,
      "count": 1176,
      "type": "VEC3",
      "max": [
        4.9423041343688965,
        4.0004730224609375,
        2.1405346393585205
      ],
      "min": [
        0.29701805114746094,
        0.1656457781791687,
        -1.840492606163025
      ]
    },
    {
      "bufferView": 2,
      "componentType": 5126,
      "count": 1176,
      "type": "VEC3",
      "max": [
        1.0,
        1.0,
        1.0
      ],
      "min": [
        -1.0,
        -1.0,
        -1.0
      ]
    },
    {
      "bufferView": 1,
      "componentType": 5126,
      "count": 1176,
      "type": "VEC2",
      "max": [
        0.8541905283927917,
        0.9475452899932861
      ],
      "min": [
        0.4689617455005646,
        0.6174029111862183
      ]
    },
    {
      "bufferView": 0,
      "componentType": 5125,
      "count": 2160,
      "type": "SCALAR"
    },
    {
      "bufferView": 2,
      "componentType": 5126,
      "count": 15432,
      "type": "VEC3",
      "max": [
        -0.2227841466665268,
        -0.45497554540634155,
        2.3805830478668213
      ],
      "min": [
        -4.879800319671631,
        -4.745296955108643,
        -1.9503936767578125
      ]
    },
    {
      "bufferView": 2,
      "componentType": 5126,
      "count": 15432,
      "type": "VEC3",
      "max": [
        1.0,
        1.0,
        1.0
      ],
      "min": [
        -1.0,
        -1.0,
        -1.0
      ]
    },
    {
      "bufferView": 1,
      "componentType": 5126,
      "count": 15432,
      "type": "VEC2",
      "max": [
        0.4181516170501709,
        0.5158179402351379
      ],
      "min": [
        0.027149349451065063,
        0.1600840985774994
      ]
    },
    {
      "bufferView": 0,
      "componentType": 5125,
      "count": 34734,
      "type": "SCALAR"
    },
    {
      "bufferView": 2,
      "componentType": 5126,
      "count": 7363,
      "type": "VEC3",
      "max": [
        4.854025363922119,
        -1.4188685417175293,
        2.1974427700042725
      ],
      "min": [
        0.20332765579223633,
        -4.763140678405762,
        -1.7909903526306152
      ]
    },
    {
      "bufferView": 2,
      "componentType": 5126,
      "count": 7363,
      "type": "VEC3",
      "max": [
        1.0,
        1.0,
        1.0
      ],
      "min": [
        -1.0,
        -1.0,
        -1.0
      ]
    },
    {
      "bufferView": 1,
      "componentType": 5126,
      "count": 7363,
      "type": "VEC2",
      "max": [
        0.8504069447517395,
        0.49744778871536255
      ],
      "min": [
        0.4647294580936432,
        0.17910784482955933
      ]
    },
    {
      "bufferView": 0,
      "componentType": 5125,
      "count": 11658,
      "type": "SCALAR"
    }
  ],
  "bufferViews": [
    {
      "buffer": 0,
      "byteOffset": 0,
      "byteLength": 203064,
      "target": 34963
    },
    {
      "buffer": 0,
      "byteOffset": 203064,
      "byteLength": 202920,
      "byteStride": 8,
      "target": 34962
    },
    {
      "buffer": 0,
      "byteOffset": 405984,
      "byteLength": 608760,
      "byteStride": 12,
      "target": 34962
    },
    {
      "buffer": 0,
      "byteOffset": 1014744,
      "byteLength": 92919
    }
  ],
  "buffers": [
    {
      "uri": "4_cubes_roblox.bin",
      "byteLength": 1107663
    }
  ]
}