{"scene":0,"scenes":[{"nodes":[0]}],"asset":{"version":"2.0","generator":"https://github.com/mikedh/trimesh"},"accessors":[{"componentType":5125,"type":"SCALAR","bufferView":0,"count":50766,"max":[25364],"min":[0]},{"componentType":5126,"type":"VEC3","byteOffset":0,"bufferView":1,"count":25365,"max":[5.017842769622803,5.0,2.5],"min":[-4.982157230377197,-5.0,-2.5]},{"componentType":5126,"type":"VEC2","byteOffset":0,"bufferView":3,"count":25365,"max":[0.8541905283927917,0.9683341979980469],"min":[0.024595677852630615,0.03283745050430298]},{"componentType":5126,"count":25365,"type":"VEC3","byteOffset":0,"bufferView":4,"max":[1.0,1.0,1.0],"min":[-1.0,-1.0,-1.0]}],"meshes":[{"name":"4_cubes.glb","extras":{"units":"from_gltf_primitive"},"primitives":[{"attributes":{"POSITION":1,"TEXCOORD_0":2,"NORMAL":3},"indices":0,"mode":4,"material":0}]}],"images":[{"bufferView":2,"mimeType":"image/jpeg"}],"textures":[{"source":0}],"materials":[{"pbrMetallicRoughness":{"baseColorTexture":{"index":0},"metallicFactor":0.0},"name":"lambert2","doubleSided":true}],"nodes":[{"name":"world","children":[1]},{"name":"4_cubes.glb","mesh":0}],"buffers":[{"uri":"gltf_buffer_0.bin","byteLength":203064},{"uri":"gltf_buffer_1.bin","byteLength":304380},{"uri":"gltf_buffer_2.bin","byteLength":40708},{"uri":"gltf_buffer_3.bin","byteLength":202920},{"uri":"gltf_buffer_4.bin","byteLength":304380}],"bufferViews":[{"buffer":0,"byteOffset":0,"byteLength":203064},{"buffer":1,"byteOffset":0,"byteLength":304380},{"buffer":2,"byteOffset":0,"byteLength":40708},{"buffer":3,"byteOffset":0,"byteLength":202920},{"buffer":4,"byteOffset":0,"byteLength":304380}]}