{
  "asset": {
    "extensions": {},
    "extras": {
      "author": "JojoInMess (https://sketchfab.com/jojoinmess)",
      "license": "CC-BY-NC-4.0 (http://creativecommons.org/licenses/by-nc/4.0/)",
      "source": "https://sketchfab.com/3d-models/4-cubes-e3c3072cab4b4ef2ba8bc796f588d1ef",
      "title": "4 Cubes"
    },
    "generator": "Sketchfab-16.72.0",
    "copyright": null,
    "version": "2.0",
    "minVersion": null
  },
  "scene": 0,
  "scenes": [
    {
      "extensions": {},
      "extras": {},
      "name": "Sketchfab_Scene",
      "nodes": [
        0
      ]
    }
  ],
  "nodes": [
    {
      "extensions": {},
      "extras": {},
      "mesh": null,
      "skin": null,
      "rotation": null,
      "translation": null,
      "scale": null,
      "children": [
        1
      ],
      "matrix": [
        1.0,
        0.0,
        0.0,
        0.0,
        0.0,
        2.220446049250313e-16,
        -1.0,
        0.0,
        0.0,
        1.0,
        2.220446049250313e-16,
        0.0,
        0.0,
        0.0,
        0.0,
        1.0
      ],
      "camera": null,
      "name": "Sketchfab_model"
    },
    {
      "extensions": {},
      "extras": {},
      "mesh": null,
      "skin": null,
      "rotation": null,
      "translation": null,
      "scale": null,
      "children": [
        2
      ],
      "matrix": [
        1.0,
        0.0,
        0.0,
        0.0,
        0.0,
        0.0,
        1.0,
        0.0,
        0.0,
        -1.0,
        0.0,
        0.0,
        0.0,
        0.0,
        0.0,
        1.0
      ],
      "camera": null,
      "name": "353307ba0e3e4f60b622e5296eb2b4dd.fbx"
    },
    {
      "extensions": {},
      "extras": {},
      "mesh": null,
      "skin": null,
      "rotation": null,
      "translation": null,
      "scale": null,
      "children": [
        3,
        5,
        7,
        9,
        11,
        13
      ],
      "matrix": null,
      "camera": null,
      "name": "RootNode"
    },
    {
      "extensions": {},
      "extras": {},
      "mesh": null,
      "skin": null,
      "rotation": null,
      "translation": null,
      "scale": null,
      "children": [
        4
      ],
      "matrix": [
        1.0,
        0.0,
        -2.220446049250313e-16,
        0.0,
        0.0,
        1.0,
        0.0,
        0.0,
        2.220446049250313e-16,
        0.0,
        1.0,
        0.0,
        -1000.0999755859375,
        0.0,
        0.0,
        1.0
      ],
      "camera": null,
      "name": "left"
    },
    {
      "extensions": {},
      "extras": {},
      "mesh": null,
      "skin": null,
      "rotation": null,
      "translation": null,
      "scale": null,
      "children": [],
      "matrix": null,
      "camera": null,
      "name": "Object_4"
    },
    {
      "extensions": {},
      "extras": {},
      "mesh": null,
      "skin": null,
      "rotation": null,
      "translation": null,
      "scale": null,
      "children": [
        6
      ],
      "matrix": null,
      "camera": null,
      "name": "cubebox"
    },
    {
      "extensions": {},
      "extras": {},
      "mesh": 0,
      "skin": null,
      "rotation": null,
      "translation": null,
      "scale": null,
      "children": [],
      "matrix": null,
      "camera": null,
      "name": "cubebox_lambert2_0"
    },
    {
      "extensions": {},
      "extras": {},
      "mesh": null,
      "skin": null,
      "rotation": null,
      "translation": null,
      "scale": null,
      "children": [
        8
      ],
      "matrix": null,
      "camera": null,
      "name": "city"
    },
    {
      "extensions": {},
      "extras": {},
      "mesh": 1,
      "skin": null,
      "rotation": null,
      "translation": null,
      "scale": null,
      "children": [],
      "matrix": null,
      "camera": null,
      "name": "city_lambert2_0"
    },
    {
      "extensions": {},
      "extras": {},
      "mesh": null,
      "skin": null,
      "rotation": null,
      "translation": null,
      "scale": null,
      "children": [
        10
      ],
      "matrix": null,
      "camera": null,
      "name": "factory"
    },
    {
      "extensions": {},
      "extras": {},
      "mesh": 2,
      "skin": null,
      "rotation": null,
      "translation": null,
      "scale": null,
      "children": [],
      "matrix": null,
      "camera": null,
      "name": "factory_lambert2_0"
    },
    {
      "extensions": {},
      "extras": {},
      "mesh": null,
      "skin": null,
      "rotation": null,
      "translation": null,
      "scale": null,
      "children": [
        12
      ],
      "matrix": null,
      "camera": null,
      "name": "park"
    },
    {
      "extensions": {},
      "extras": {},
      "mesh": 3,
      "skin": null,
      "rotation": null,
      "translation": null,
      "scale": null,
      "children": [],
      "matrix": null,
      "camera": null,
      "name": "park_lambert2_0"
    },
    {
      "extensions": {},
      "extras": {},
      "mesh": null,
      "skin": null,
      "rotation": null,
      "translation": null,
      "scale": null,
      "children": [
        14
      ],
      "matrix": null,
      "camera": null,
      "name": "country"
    },
    {
      "extensions": {},
      "extras": {},
      "mesh": 4,
      "skin": null,
      "rotation": null,
      "translation": null,
      "scale": null,
      "children": [],
      "matrix": null,
      "camera": null,
      "name": "country_lambert2_0"
    }
  ],
  "meshes": [
    {
      "extensions": {},
      "extras": {},
      "primitives": [
        {
          "extensions": {},
          "extras": {},
          "attributes": {
            "POSITION": 0,
            "NORMAL": 1,
            "TANGENT": null,
            "TEXCOORD_0": 2,
            "TEXCOORD_1": null,
            "COLOR_0": null,
            "JOINTS_0": null,
            "WEIGHTS_0": null
          },
          "indices": 3,
          "mode": 4,
          "material": 0,
          "targets": []
        }
      ],
      "weights": [],
      "name": "cubebox_lambert2_0"
    },
    {
      "extensions": {},
      "extras": {},
      "primitives": [
        {
          "extensions": {},
          "extras": {},
          "attributes": {
            "POSITION": 4,
            "NORMAL": 5,
            "TANGENT": null,
            "TEXCOORD_0": 6,
            "TEXCOORD_1": null,
            "COLOR_0": null,
            "JOINTS_0": null,
            "WEIGHTS_0": null
          },
          "indices": 7,
          "mode": 4,
          "material": 0,
          "targets": []
        }
      ],
      "weights": [],
      "name": "city_lambert2_0"
    },
    {
      "extensions": {},
      "extras": {},
      "primitives": [
        {
          "extensions": {},
          "extras": {},
          "attributes": {
            "POSITION": 8,
            "NORMAL": 9,
            "TANGENT": null,
            "TEXCOORD_0": 10,
            "TEXCOORD_1": null,
            "COLOR_0": null,
            "JOINTS_0": null,
            "WEIGHTS_0": null
          },
          "indices": 11,
          "mode": 4,
          "material": 0,
          "targets": []
        }
      ],
      "weights": [],
      "name": "factory_lambert2_0"
    },
    {
      "extensions": {},
      "extras": {},
      "primitives": [
        {
          "extensions": {},
          "extras": {},
          "attributes": {
            "POSITION": 12,
            "NORMAL": 13,
            "TANGENT": null,
            "TEXCOORD_0": 14,
            "TEXCOORD_1": null,
            "COLOR_0": null,
            "JOINTS_0": null,
            "WEIGHTS_0": null
          },
          "indices": 15,
          "mode": 4,
          "material": 0,
          "targets": []
        }
      ],
      "weights": [],
      "name": "park_lambert2_0"
    },
    {
      "extensions": {},
      "extras": {},
      "primitives": [
        {
          "extensions": {},
          "extras": {},
          "attributes": {
            "POSITION": 16,
            "NORMAL": 17,
            "TANGENT": null,
            "TEXCOORD_0": 18,
            "TEXCOORD_1": null,
            "COLOR_0": null,
            "JOINTS_0": null,
            "WEIGHTS_0": null
          },
          "indices": 19,
          "mode": 4,
          "material": 0,
          "targets": []
        }
      ],
      "weights": [],
      "name": "country_lambert2_0"
    }
  ],
  "materials": [
    {
      "extensions": {
        "KHR_materials_unlit": {}
      },
      "extras": {},
      "pbrMetallicRoughness": {
        "extensions": {},
        "extras": {},
        "baseColorFactor": [
          1.0,
          1.0,
          1.0,
          1.0
        ],
        "metallicFactor": 0.0,
        "roughnessFactor": 1.0,
        "baseColorTexture": {
          "extensions": {},
          "extras": {},
          "index": 0,
          "texCoord": 0
        },
        "metallicRoughnessTexture": null
      },
      "normalTexture": null,
      "occlusionTexture": null,
      "emissiveFactor": [
        0.0,
        0.0,
        0.0
      ],
      "emissiveTexture": null,
      "alphaMode": "OPAQUE",
      "alphaCutoff": null,
      "doubleSided": true,
      "name": "lambert2"
    }
  ],
  "textures": [
    {
      "extensions": {},
      "extras": {},
      "sampler": 0,
      "source": 0,
      "name": null
    }
  ],
  "samplers": [
    {
      "extensions": {},
      "extras": {},
      "input": null,
      "interpolation": null,
      "output": null,
      "magFilter": 9729,
      "minFilter": 9987,
      "wrapS": 10497,
      "wrapT": 10497
    }
  ],
  "images": [
    {
      "extensions": {},
      "extras": {},
      "uri": null,
      "mimeType": "image/jpeg",
      "bufferView": 3,
      "name": null
    }
  ],
  "accessors": [
    {
      "extensions": {},
      "extras": {},
      "bufferView": 2,
      "byteOffset": 0,
      "componentType": 5126,
      "normalized": false,
      "count": 170,
      "type": "VEC3",
      "sparse": null,
      "max": [
        5.017842769622803,
        5.0,
        2.5
      ],
      "min": [
        -4.982157230377197,
        -5.0,
        -2.5
      ],
      "name": null
    },
    {
      "extensions": {},
      "extras": {},
      "bufferView": 2,
      "byteOffset": 2040,
      "componentType": 5126,
      "normalized": false,
      "count": 170,
      "type": "VEC3",
      "sparse": null,
      "max": [
        1.0,
        1.0,
        1.0
      ],
      "min": [
        -1.0,
        -1.0,
        -1.0
      ],
      "name": null
    },
    {
      "extensions": {},
      "extras": {},
      "bufferView": 1,
      "byteOffset": 0,
      "componentType": 5126,
      "normalized": false,
      "count": 170,
      "type": "VEC2",
      "sparse": null,
      "max": [
        0.8391134142875671,
        0.9683341979980469
      ],
      "min": [
        0.033441364765167236,
        0.03283745050430298
      ],
      "name": null
    },
    {
      "extensions": {},
      "extras": {},
      "bufferView": 0,
      "byteOffset": 0,
      "componentType": 5125,
      "normalized": false,
      "count": 288,
      "type": "SCALAR",
      "sparse": null,
      "max": [],
      "min": [],
      "name": null
    },
    {
      "extensions": {},
      "extras": {},
      "bufferView": 2,
      "byteOffset": 4080,
      "componentType": 5126,
      "normalized": false,
      "count": 1224,
      "type": "VEC3",
      "sparse": null,
      "max": [
        -0.24242210388183594,
        4.3503007888793945,
        2.1405346393585205
      ],
      "min": [
        -4.788821697235107,
        0.16936901211738586,
        -1.7510921955108643
      ],
      "name": null
    },
    {
      "extensions": {},
      "extras": {},
      "bufferView": 2,
      "byteOffset": 18768,
      "componentType": 5126,
      "normalized": false,
      "count": 1224,
      "type": "VEC3",
      "sparse": null,
      "max": [
        1.0,
        1.0,
        1.0
      ],
      "min": [
        -1.0,
        0.0,
        -1.0
      ],
      "name": null
    },
    {
      "extensions": {},
      "extras": {},
      "bufferView": 1,
      "byteOffset": 1360,
      "componentType": 5126,
      "normalized": false,
      "count": 1224,
      "type": "VEC2",
      "sparse": null,
      "max": [
        0.40162384510040283,
        0.9386836290359497
      ],
      "min": [
        0.024595677852630615,
        0.6159549951553345
      ],
      "name": null
    },
    {
      "extensions": {},
      "extras": {},
      "bufferView": 0,
      "byteOffset": 1152,
      "componentType": 5125,
      "normalized": false,
      "count": 1926,
      "type": "SCALAR",
      "sparse": null,
      "max": [],
      "min": [],
      "name": null
    },
    {
      "extensions": {},
      "extras": {},
      "bufferView": 2,
      "byteOffset": 33456,
      "componentType": 5126,
      "normalized": false,
      "count": 1176,
      "type": "VEC3",
      "sparse": null,
      "max": [
        4.9423041343688965,
        4.0004730224609375,
        2.1405346393585205
      ],
      "min": [
        0.29701805114746094,
        0.1656457781791687,
        -1.840492606163025
      ],
      "name": null
    },
    {
      "extensions": {},
      "extras": {},
      "bufferView": 2,
      "byteOffset": 47568,
      "componentType": 5126,
      "normalized": false,
      "count": 1176,
      "type": "VEC3",
      "sparse": null,
      "max": [
        1.0,
        1.0,
        1.0
      ],
      "min": [
        -1.0,
        -1.0,
        -1.0
      ],
      "name": null
    },
    {
      "extensions": {},
      "extras": {},
      "bufferView": 1,
      "byteOffset": 11152,
      "componentType": 5126,
      "normalized": false,
      "count": 1176,
      "type": "VEC2",
      "sparse": null,
      "max": [
        0.8541905283927917,
        0.9475452899932861
      ],
      "min": [
        0.4689617455005646,
        0.6174029111862183
      ],
      "name": null
    },
    {
      "extensions": {},
      "extras": {},
      "bufferView": 0,
      "byteOffset": 8856,
      "componentType": 5125,
      "normalized": false,
      "count": 2160,
      "type": "SCALAR",
      "sparse": null,
      "max": [],
      "min": [],
      "name": null
    },
    {
      "extensions": {},
      "extras": {},
      "bufferView": 2,
      "byteOffset": 61680,
      "componentType": 5126,
      "normalized": false,
      "count": 15432,
      "type": "VEC3",
      "sparse": null,
      "max": [
        -0.2227841466665268,
        -0.45497554540634155,
        2.3805830478668213
      ],
      "min": [
        -4.879800319671631,
        -4.745296955108643,
        -1.9503936767578125
      ],
      "name": null
    },
    {
      "extensions": {},
      "extras": {},
      "bufferView": 2,
      "byteOffset": 246864,
      "componentType": 5126,
      "normalized": false,
      "count": 15432,
      "type": "VEC3",
      "sparse": null,
      "max": [
        1.0,
        1.0,
        1.0
      ],
      "min": [
        -1.0,
        -1.0,
        -1.0
      ],
      "name": null
    },
    {
      "extensions": {},
      "extras": {},
      "bufferView": 1,
      "byteOffset": 20560,
      "componentType": 5126,
      "normalized": false,
      "count": 15432,
      "type": "VEC2",
      "sparse": null,
      "max": [
        0.4181516170501709,
        0.5158179402351379
      ],
      "min": [
        0.027149349451065063,
        0.1600840985774994
      ],
      "name": null
    },
    {
      "extensions": {},
      "extras": {},
      "bufferView": 0,
      "byteOffset": 17496,
      "componentType": 5125,
      "normalized": false,
      "count": 34734,
      "type": "SCALAR",
      "sparse": null,
      "max": [],
      "min": [],
      "name": null
    },
    {
      "extensions": {},
      "extras": {},
      "bufferView": 2,
      "byteOffset": 432048,
      "componentType": 5126,
      "normalized": false,
      "count": 7363,
      "type": "VEC3",
      "sparse": null,
      "max": [
        4.854025363922119,
        -1.4188685417175293,
        2.1974427700042725
      ],
      "min": [
        0.20332765579223633,
        -4.763140678405762,
        -1.7909903526306152
      ],
      "name": null
    },
    {
      "extensions": {},
      "extras": {},
      "bufferView": 2,
      "byteOffset": 520404,
      "componentType": 5126,
      "normalized": false,
      "count": 7363,
      "type": "VEC3",
      "sparse": null,
      "max": [
        1.0,
        1.0,
        1.0
      ],
      "min": [
        -1.0,
        -1.0,
        -1.0
      ],
      "name": null
    },
    {
      "extensions": {},
      "extras": {},
      "bufferView": 1,
      "byteOffset": 144016,
      "componentType": 5126,
      "normalized": false,
      "count": 7363,
      "type": "VEC2",
      "sparse": null,
      "max": [
        0.8504069447517395,
        0.49744778871536255
      ],
      "min": [
        0.4647294580936432,
        0.17910784482955933
      ],
      "name": null
    },
    {
      "extensions": {},
      "extras": {},
      "bufferView": 0,
      "byteOffset": 156432,
      "componentType": 5125,
      "normalized": false,
      "count": 11658,
      "type": "SCALAR",
      "sparse": null,
      "max": [],
      "min": [],
      "name": null
    }
  ],
  "bufferViews": [
    {
      "extensions": {},
      "extras": {},
      "buffer": 0,
      "byteOffset": 0,
      "byteLength": 203064,
      "byteStride": null,
      "target": 34963,
      "name": "floatBufferViews"
    },
    {
      "extensions": {},
      "extras": {},
      "buffer": 0,
      "byteOffset": 203064,
      "byteLength": 202920,
      "byteStride": 8,
      "target": 34962,
      "name": "floatBufferViews"
    },
    {
      "extensions": {},
      "extras": {},
      "buffer": 0,
      "byteOffset": 405984,
      "byteLength": 608760,
      "byteStride": 12,
      "target": 34962,
      "name": "floatBufferViews"
    },
    {
      "extensions": {},
      "extras": {},
      "buffer": 0,
      "byteOffset": 1014744,
      "byteLength": 92919,
      "byteStride": null,
      "target": null,
      "name": "lambert2_baseColor.jpeg"
    }
  ],
  "buffers": [
    {
      "uri": "4_cubes.bin",
      "byteLength": 1107663
    }
  ],
  "animations": [],
  "skins": []
}