{"scene":0,"scenes":[{"nodes":[0]}],"asset":{"version":"2.0","generator":"https://github.com/mikedh/trimesh"},"accessors":[{"componentType":5125,"type":"SCALAR","bufferView":0,"count":140178,"max":[26308],"min":[0]},{"componentType":5126,"type":"VEC3","byteOffset":0,"bufferView":1,"count":26309,"max":[5.258199691772461,16.666898727416992,3.346001386642456],"min":[-5.258199691772461,0.006299364380538464,-1.183998703956604]},{"componentType":5126,"type":"VEC2","byteOffset":0,"bufferView":4,"count":26309,"max":[0.4989851415157318,0.9960632920265198],"min":[0.0009841566206887364,0.5032040476799011]},{"componentType":5126,"count":26309,"type":"VEC3","byteOffset":0,"bufferView":5,"max":[0.999976634979248,0.999994695186615,0.9999963641166687],"min":[-0.9999987483024597,-0.9999852776527405,-0.9998750686645508]}],"meshes":[{"name":"business_man_model__rigged__free.glb","extras":{"units":"from_gltf_primitive"},"primitives":[{"attributes":{"POSITION":1,"TEXCOORD_0":2,"NORMAL":3},"indices":0,"mode":4,"material":0}]}],"images":[{"bufferView":2,"mimeType":"image/png"},{"bufferView":3,"mimeType":"image/png"}],"textures":[{"source":0},{"source":1}],"materials":[{"pbrMetallicRoughness":{"baseColorTexture":{"index":0},"metallicRoughnessTexture":{"index":1}},"doubleSided":false}],"nodes":[{"name":"world","children":[1]},{"name":"business_man_model__rigged__free.glb","mesh":0}],"buffers":[{"uri":"gltf_buffer_0.bin","byteLength":560712},{"uri":"gltf_buffer_1.bin","byteLength":315708},{"uri":"gltf_buffer_2.bin","byteLength":8728612},{"uri":"gltf_buffer_3.bin","byteLength":102964},{"uri":"gltf_buffer_4.bin","byteLength":210472},{"uri":"gltf_buffer_5.bin","byteLength":315708}],"bufferViews":[{"buffer":0,"byteOffset":0,"byteLength":560712},{"buffer":1,"byteOffset":0,"byteLength":315708},{"buffer":2,"byteOffset":0,"byteLength":8728612},{"buffer":3,"byteOffset":0,"byteLength":102964},{"buffer":4,"byteOffset":0,"byteLength":210472},{"buffer":5,"byteOffset":0,"byteLength":315708}]}